<svg xmlns="http://www.w3.org/2000/svg" viewBox="0 0 890.18 701.67"><defs><style>.cls-1{fill:#fff;}</style></defs><g id="logos"><path class="cls-1" d="M522.1,402.31V326.87h14.6l2.36,9.62q9.8-9.63,20.76-9.62v15.39c-7,0-13.29,3.16-18.86,9.54v50.51Z"/><path class="cls-1" d="M569.85,378.8c0-15.44,10.81-23.21,32.47-23.21A95.12,95.12,0,0,1,619.68,357V352.1q0-10.11-19.43-10.13a84.69,84.69,0,0,0-24.33,3.59v-15.1a85,85,0,0,1,24.33-3.59q38.28,0,38.26,24.88v50.56H629l-8.1-5.32a42.92,42.92,0,0,1-20.77,5.32q-30.25,0-30.26-23.51M602.32,370c-9.08,0-13.59,2.89-13.59,8.62s3.79,8.62,11.38,8.62,14.2-2,19.57-5.88v-9.91A88.25,88.25,0,0,0,602.32,370"/><path class="cls-1" d="M728.09,402.32q0,27.26-40.09,27.26a75.43,75.43,0,0,1-24.5-3.6V410.92a78.42,78.42,0,0,0,24.63,3.59c14.06,0,21.07-5.76,21.07-17.21a46,46,0,0,1-18.07,3.58q-35.45,0-35.45-36.74,0-37.27,40.91-37.27a196.43,196.43,0,0,1,31.5,3.08ZM709.2,344c-3.06-1.17-8-1.73-14.6-1.73q-20.25,0-20.26,21.76,0,21,16.87,21.05a39.59,39.59,0,0,0,18-3.9Z"/><path class="cls-1" d="M745.19,378.8c0-15.44,10.85-23.21,32.47-23.21A95.19,95.19,0,0,1,795,357V352.1Q795,342,775.61,342a85.08,85.08,0,0,0-24.35,3.59v-15.1a85.43,85.43,0,0,1,24.35-3.59q38.28,0,38.28,24.88v50.56h-9.54L796.24,397a42.9,42.9,0,0,1-20.78,5.32q-30.27,0-30.27-23.51M777.66,370c-9,0-13.61,2.89-13.61,8.62s3.84,8.62,11.41,8.62,14.2-2,19.58-5.88v-9.91A88.61,88.61,0,0,0,777.66,370"/><path class="cls-1" d="M485.52,375.84q19-7.53,19-25.06,0-23.92-29.05-23.92H427.74V429.55h46.2q31.8,0,31.82-30.37,0-19.53-20.24-23.34m-12.36,37.22H446.6V343.39h27.62q10.53,0,10.52,8.61c0,7.22-3.25,13.74-10.95,16.06-4.3,1.3-6.6,4.28-6.6,8.37a8.31,8.31,0,0,0,6.47,8.42c7.89,1.72,12,6.78,12,15.3s-4.18,12.91-12.51,12.91"/><path class="cls-1" d="M468.36,242.49s-13.24-1.56-18.8-1.56c-9.36,0-14.45,3.1-14.45,10.65,0,8.79,4.59,10.25,16.28,12.86,13.21,3,19.06,6.28,19.06,18.25,0,14.5-8.15,20.28-21.45,20.28-7.26,0-20.41-2-20.41-2l.79-6.76s12.73,1.64,19.52,1.64c9.39,0,14.07-3.57,14.07-12.84,0-7.57-3.91-9.68-14.73-11.8-13.7-3-20.5-6.27-20.5-19.4,0-12.58,8.33-18,21.82-18,7.38,0,19.44,1.95,19.44,1.95Z"/><path class="cls-1" d="M491.23,260.36v22.52c0,10.5.55,13.43,6.88,13.43,2.66,0,8.52-.48,8.52-.48l.37,6.3a81.81,81.81,0,0,1-9.67,1.05c-9.88,0-13.31-3.78-13.31-17.71V260.36h-6.78v-6.58H484V239h7.21v14.77h15.09v6.58Z"/><path class="cls-1" d="M550.83,292.36c.22,3.09,2.51,4.05,5.57,4.43l-.3,6.3c-5.75,0-8.8-1.09-11.29-3.7a51.17,51.17,0,0,1-17.71,3.7c-8.33,0-13-5.32-13-14.8,0-9.27,4.69-13.43,14.54-14.3l15.13-1.44v-4c0-6.1-3-8.8-8.34-8.8-7,0-18.27,1.25-18.27,1.25l-.28-6.27s11.48-1.94,18.85-1.94c10.16,0,15.12,4.83,15.12,15.76ZM529.6,279.59c-5.84.59-8.23,3.59-8.23,8.5,0,5.62,2.46,8.7,6.77,8.7,7.27,0,15.61-2.9,15.61-2.9V278.45Z"/><path class="cls-1" d="M567.67,253.78h7.2v6.38a44.09,44.09,0,0,1,16.65-7.33v7.54A53.73,53.73,0,0,0,574.87,267v35.09h-7.2Z"/><path class="cls-1" d="M610,260.36v22.52c0,10.5.55,13.43,6.89,13.43,2.67,0,8.52-.48,8.52-.48l.39,6.3a81.8,81.8,0,0,1-9.68,1.05c-9.84,0-13.33-3.78-13.33-17.71V260.36H596v-6.58h6.78V239H610v14.77h15.14v6.58Z"/><path class="cls-1" d="M674.31,253.89v48.24h-10.9V299.7s-7.08,3.48-12.08,3.48c-12.25,0-16.18-7.37-16.18-24.07V253.89h10.93V279c0,10.06,1.34,14.47,7.45,14.47,4,0,9.88-2.49,9.88-2.49V253.89Z"/><path class="cls-1" d="M689.42,253.88h10.94v2.52s5.91-3.68,11.39-3.68c11.67,0,18,7.84,18,24.75,0,19.32-7.17,25.71-21.08,25.71a48.43,48.43,0,0,1-8.3-.79v15H689.42Zm10.94,11.51v27.37a44.07,44.07,0,0,0,7.55.74c8.25,0,10.71-5.7,10.71-16,0-9-2.76-14.79-8.91-14.79-4.17,0-9.35,2.71-9.35,2.71"/><path class="cls-1" d="M179.62,353.7,227,305.86c3.61-3.65,22.84-20.55,47.17,4l40.9,41.26a27.4,27.4,0,0,1,.29,38.17l.16,0c.4.05.71.08,1,.09.1,0,.22,0,.32,0a9,9,0,0,0,1,0,12.51,12.51,0,0,0,2-.15c.36,0,.74-.13,1.11-.19s.66-.12,1-.2.8-.22,1.2-.35.63-.16.95-.28.89-.33,1.35-.5c.26-.12.54-.19.8-.32.45-.19.91-.42,1.36-.64l.72-.35c.42-.23.83-.48,1.23-.72s.51-.27.75-.43.67-.48,1-.72.52-.36.77-.56.5-.43.75-.64.56-.49.8-.73.68-.74,1-1.11a22.74,22.74,0,0,0-1.07-31.12c-2.22-2.26-4.64-4.71-7.19-7.28l-44.25-44.72L279.73,296c-9.43-9.51-16.15-16.28-16.69-16.79a55.92,55.92,0,0,0-25.44-13.82,58.58,58.58,0,0,0-9.75-1.41h-.21c-1.33-.08-2.56-.13-3.76-.13s-2.24,0-3.44.1l-.86.07a7.43,7.43,0,0,0-1.15.09l-.27.05-.34.06a55,55,0,0,0-22.52,7.05h0a2.59,2.59,0,0,1-.3.21c-.73.48-2.4,1.57-3.55,2.34-.54.34-1,.64-1.08.72-1.16.83-2.11,1.55-2.93,2.25-1.18,1-2.38,2.06-3.67,3.34l-37.87,38.22-.25.29-.93,1.07v0l-.06.08-.71.86-.57.7c-.86,1.1-1.7,2.25-2.41,3.32,0,0,0,0,0,.05-.37.54-.7,1.07-1,1.55a41.42,41.42,0,0,0-2,3.72c-.57,1.19-1.07,2.41-1.57,3.75a4.87,4.87,0,0,0-.23.67l-.21.57c-.29.86-.57,1.79-.83,2.76-.12.43-.22.8-.31,1.16-.29,1.19-.53,2.41-.73,3.69l0,.27a40.07,40.07,0,0,0-.39,4.05c0,.23,0,.4,0,.56v.32c0,1.11,0,2.23,0,3.37,0,.34,0,.56,0,.8a44.36,44.36,0,0,0,1.28,8.41c.14.55.3,1,.45,1.55l.26.89c.18.56.37,1.12.56,1.65a43.56,43.56,0,0,0,10.19,16.26c.56.57,1.16,1.14,1.79,1.7l.63.54c.42.38.85.74,1.3,1.1.25.21.53.41.78.62.42.32.83.63,1.26.94s.58.42.87.61l1.28.86.94.58c.43.27.87.54,1.33.79l.95.53c.45.24.94.48,1.4.73l.94.46c.51.24,1,.45,1.54.68l.88.38,2,.74a3.71,3.71,0,0,1,.47.16c.82.27,1.64.51,2.48.74l.77.18c.57.14,1.15.27,1.72.38l1,.16c.5.08,1,.17,1.52.23l1.06.09c.48,0,1,.08,1.44.09s.72,0,1.07,0,1,0,1.44,0a9.28,9.28,0,0,0,1.05-.08c.47,0,.95-.1,1.42-.18s.68-.09,1-.15a2.41,2.41,0,0,1,.35-.07l-1.34-1.3a27.48,27.48,0,0,1,0-38.5"/><path class="cls-1" d="M265.9,354.22h0l-.42-.42a22.78,22.78,0,0,0-15-6.67c-.44,0-.76-.07-1.11-.07s-.63,0-.94.06a23,23,0,0,0-15.18,6.72l-36.46,36.82a30.2,30.2,0,0,1-5.68,4.69l-3.85,1.8c-15.63,6.57-34.15-1.94-44.73-12.63a48.94,48.94,0,0,1-11.44-18.23c-.22-.6-.43-1.22-.65-1.9-.07-.27-.14-.53-.23-.8-.15-.53-.31-1.07-.47-1.69l-.09-.3a49.7,49.7,0,0,1-1.4-9.28c0-.35-.05-.68-.05-1,0-1.19,0-2.43,0-3.66v-.24c0-.26,0-.5,0-.79,0-.57.08-1.13.14-1.69.07-.92.16-1.79.27-2.63l.08-.53c.23-1.43.51-2.8.82-4.1.08-.39.2-.81.3-1.22s.2-.66.28-1a60.07,60.07,0,0,0-11.9,35.3,59.21,59.21,0,0,0,17.22,41.94,61.51,61.51,0,0,0,7.29,6.26,58.4,58.4,0,0,0,75.82-6.23L249.4,381.6l26.65,26.87a58.29,58.29,0,0,0,41.58,17.39h.68a58.09,58.09,0,0,0,40.91-17.39l.06-.06a59.17,59.17,0,0,0,17.17-41.88c0-15.42-6.51-30.83-17.89-42.29-6.94-7-67.71-68.45-68.21-69a56.35,56.35,0,0,0-36.88-17l-1.45-.08c-.88,0-1.74-.06-2.59,0l-.41,0-2.72.08-1.13.09a7.57,7.57,0,0,0-.79.06l-.66.06a54.9,54.9,0,0,0-34.85,16.41l-7.7,7.76h0c1.16-.43,2.33-.83,3.53-1.19l1-.28c.88-.26,1.76-.5,2.65-.71l1.22-.29c.88-.18,1.77-.36,2.66-.51l1.13-.2c1.26-.19,2.52-.36,3.81-.48a.79.79,0,0,1,.22-.06l.29-.05a14.33,14.33,0,0,1,1.65-.13l.75-.08c1.41-.06,2.56-.09,3.66-.1,1.42,0,2.77.06,4.19.13h.23a63.93,63.93,0,0,1,10.59,1.57,61.7,61.7,0,0,1,27.83,15.06c.27.21,7.68,7.67,18.13,18.22l2.46,2.48c13.43,13.55,31,31.32,45.06,45.55,1.77,1.78,3.45,3.49,5.09,5.15a27.79,27.79,0,0,1,8.26,19.9,28.38,28.38,0,0,1-6.91,18.53c-.38.44-.79.91-1.22,1.36l0,0h0c-4.7,4.72-13.07,8.32-19.5,8.37a32.44,32.44,0,0,1-9.34-1.57,25.35,25.35,0,0,1-10.7-6.8Z"/></g></svg>