<svg xmlns="http://www.w3.org/2000/svg" viewBox="0 0 884.95 602.18"><defs><style>.cls-1,.cls-2{fill:#fff;}.cls-2{stroke:#d0d2d3;stroke-miterlimit:10;stroke-width:0.38px;}</style></defs><g id="logos"><path class="cls-1" d="M436.73,354.05h5.54a8.68,8.68,0,1,1,0,17.35h-5.54Zm5.54,16c4.58,0,7.21-3.26,7.21-7.31s-2.6-7.34-7.21-7.34h-4.06v14.65Z"/><path class="cls-1" d="M465.89,367.13h-9.23l-1.75,4.27h-1.66l7.1-17.35h1.85l7.1,17.35h-1.66Zm-8.77-1.35h8.3l-4.16-10.28Z"/><path class="cls-1" d="M475.78,355.4H470.1v-1.35H483v1.35h-5.68v16h-1.5Z"/><path class="cls-1" d="M496.4,367.13h-9.23l-1.75,4.27h-1.66l7.1-17.35h1.85l7.1,17.35h-1.66Zm-8.76-1.35h8.3l-4.17-10.28Z"/><path class="cls-1" d="M511.7,367.84a7.06,7.06,0,0,0,5.41,2.52c3.56,0,4.58-2,4.58-3.46,0-2.45-2.32-3.12-4.77-3.77-2.73-.76-5.64-1.54-5.64-4.74,0-2.83,2.55-4.63,5.7-4.63a7.45,7.45,0,0,1,5.88,2.45l-1,1.09a6.22,6.22,0,0,0-5-2.19c-2.32,0-4.06,1.33-4.06,3.2,0,2.06,2.16,2.66,4.53,3.28,2.81.81,5.88,1.69,5.88,5.2,0,2.24-1.49,4.92-6.17,4.92a8,8,0,0,1-6.35-2.76Z"/><path class="cls-1" d="M527.46,362.74a8.61,8.61,0,0,1,8.74-9,7.84,7.84,0,0,1,6.37,3.07l-1.24.81a6.36,6.36,0,0,0-5.13-2.53c-4,0-7.18,3.1-7.18,7.63s3.15,7.62,7.18,7.62a6.35,6.35,0,0,0,5.13-2.52l1.24.78a7.78,7.78,0,0,1-6.37,3.09A8.61,8.61,0,0,1,527.46,362.74Z"/><path class="cls-1" d="M546.89,354.05h1.48V371.4h-1.48Z"/><path class="cls-1" d="M554,354.05h11v1.35h-9.52v6.43h9.34v1.35h-9.34v6.87H565v1.35H554Z"/><path class="cls-1" d="M571.44,356.41v15H570V354.05h1.51l10.87,14.77V354.05h1.49V371.4h-1.46Z"/><path class="cls-1" d="M588.79,362.74a8.61,8.61,0,0,1,8.74-9,7.86,7.86,0,0,1,6.38,3.07l-1.25.81a6.33,6.33,0,0,0-5.13-2.53c-4,0-7.18,3.1-7.18,7.63s3.15,7.62,7.18,7.62a6.32,6.32,0,0,0,5.13-2.52l1.25.78a7.82,7.82,0,0,1-6.38,3.09A8.61,8.61,0,0,1,588.79,362.74Z"/><path class="cls-1" d="M608.22,354.05h11v1.35h-9.52v6.43h9.34v1.35h-9.34v6.87h9.52v1.35h-11Z"/><path class="cls-1" d="M436.73,385.26h6.5a5.08,5.08,0,1,1,0,10.15h-5v7.2h-1.48Zm6.35,1.35h-4.87v7.44h4.87a3.72,3.72,0,1,0,0-7.44Z"/><path class="cls-1" d="M460.66,385c5.08,0,8.43,3.91,8.43,9s-3.35,9-8.43,9-8.43-3.91-8.43-9S455.56,385,460.66,385Zm0,1.36c-4.21,0-6.87,3.2-6.87,7.62s2.66,7.62,6.87,7.62,6.87-3.25,6.87-7.62S464.83,386.33,460.66,386.33Z"/><path class="cls-1" d="M479.36,395.43h-3.82v7.18h-1.48V385.26h6.47c3,0,5.29,1.9,5.29,5.07a4.79,4.79,0,0,1-4.82,5l5,7.28h-1.8Zm1-8.82h-4.86v7.47h4.86a3.74,3.74,0,1,0,0-7.47Z"/><path class="cls-1" d="M495,386.61H489.3v-1.35h12.85v1.35h-5.67v16H495Z"/><path class="cls-1" d="M506.52,385.26H508v10.67c0,3.51,1.85,5.64,5.25,5.64s5.26-2.13,5.26-5.64V385.26h1.51V396c0,4.3-2.29,7-6.77,7s-6.76-2.71-6.76-7Z"/><path class="cls-1" d="M533.81,385a8.26,8.26,0,0,1,6.53,3l-1.12.81a7.06,7.06,0,0,0-5.41-2.42c-4.09,0-7.24,3.09-7.24,7.62s3.15,7.65,7.24,7.65a7.42,7.42,0,0,0,5.1-2.11v-4.16h-6.56V394h8v6.06a8.76,8.76,0,0,1-6.58,2.89,9,9,0,0,1,0-18Z"/><path class="cls-1" d="M545.46,385.26H547v10.67c0,3.51,1.84,5.64,5.25,5.64s5.26-2.13,5.26-5.64V385.26H559V396c0,4.3-2.29,7-6.77,7s-6.76-2.71-6.76-7Z"/><path class="cls-1" d="M564.6,385.26h11v1.35h-9.53V393h9.34v1.35h-9.34v6.87h9.53v1.35h-11Z"/><path class="cls-1" d="M580.57,399.05a7.07,7.07,0,0,0,5.41,2.52c3.57,0,4.58-2,4.58-3.46,0-2.44-2.31-3.12-4.76-3.77-2.73-.75-5.64-1.53-5.64-4.73,0-2.84,2.55-4.64,5.69-4.64a7.42,7.42,0,0,1,5.88,2.45l-1,1.09a6.21,6.21,0,0,0-5-2.18c-2.32,0-4.06,1.32-4.06,3.2,0,2.05,2.16,2.65,4.53,3.28,2.8.8,5.88,1.69,5.88,5.2,0,2.24-1.49,4.92-6.17,4.92a8,8,0,0,1-6.35-2.76Z"/><path class="cls-1" d="M597,385.26h11v1.35h-9.52V393h9.34v1.35h-9.34v6.87H608v1.35H597Z"/><path class="cls-1" d="M631.87,398.35h-9.24l-1.74,4.26h-1.66l7.1-17.35h1.84l7.11,17.35h-1.67ZM623.1,397h8.3l-4.16-10.27Z"/><path class="cls-1" d="M638.68,399.05a7.07,7.07,0,0,0,5.41,2.52c3.57,0,4.58-2,4.58-3.46,0-2.44-2.31-3.12-4.76-3.77-2.73-.75-5.65-1.53-5.65-4.73,0-2.84,2.55-4.64,5.7-4.64a7.44,7.44,0,0,1,5.88,2.45l-1,1.09a6.2,6.2,0,0,0-5-2.18c-2.31,0-4,1.32-4,3.2,0,2.05,2.16,2.65,4.52,3.28,2.81.8,5.88,1.69,5.88,5.2,0,2.24-1.48,4.92-6.16,4.92a8,8,0,0,1-6.35-2.76Z"/><path class="cls-1" d="M655.09,399.05a7.08,7.08,0,0,0,5.42,2.52c3.56,0,4.57-2,4.57-3.46,0-2.44-2.31-3.12-4.76-3.77-2.73-.75-5.64-1.53-5.64-4.73,0-2.84,2.55-4.64,5.7-4.64a7.45,7.45,0,0,1,5.88,2.45l-1,1.09a6.21,6.21,0,0,0-5-2.18c-2.32,0-4.06,1.32-4.06,3.2,0,2.05,2.16,2.65,4.53,3.28,2.81.8,5.88,1.69,5.88,5.2,0,2.24-1.49,4.92-6.17,4.92a8,8,0,0,1-6.35-2.76Z"/><path class="cls-1" d="M679.29,385c5.07,0,8.43,3.91,8.43,9s-3.36,9-8.43,9-8.43-3.91-8.43-9S674.19,385,679.29,385Zm0,1.36c-4.22,0-6.87,3.2-6.87,7.62s2.65,7.62,6.87,7.62,6.87-3.25,6.87-7.62S683.45,386.33,679.29,386.33Z"/><path class="cls-1" d="M692,394a8.62,8.62,0,0,1,8.74-9,7.9,7.9,0,0,1,6.38,3.07l-1.25.81a6.34,6.34,0,0,0-5.13-2.52c-4,0-7.18,3.09-7.18,7.62s3.15,7.62,7.18,7.62a6.34,6.34,0,0,0,5.13-2.52l1.25.78a7.83,7.83,0,0,1-6.38,3.1A8.62,8.62,0,0,1,692,394Z"/><path class="cls-1" d="M711.46,385.26h1.48v17.35h-1.48Z"/><path class="cls-1" d="M729.44,398.35H720.2l-1.74,4.26h-1.67l7.11-17.35h1.84l7.1,17.35h-1.66ZM720.67,397H729l-4.16-10.27Z"/><path class="cls-1" d="M739.32,386.61h-5.67v-1.35H746.5v1.35h-5.67v16h-1.51Z"/><path class="cls-1" d="M750.87,385.26h1.48v17.35h-1.48Z"/><path class="cls-1" d="M765.75,385c5.07,0,8.43,3.91,8.43,9s-3.36,9-8.43,9-8.43-3.91-8.43-9S760.65,385,765.75,385Zm0,1.36c-4.22,0-6.87,3.2-6.87,7.62s2.65,7.62,6.87,7.62,6.87-3.25,6.87-7.62S769.91,386.33,765.75,386.33Z"/><path class="cls-1" d="M780.62,387.63v15h-1.48V385.26h1.51L791.53,400V385.26H793v17.35h-1.46Z"/><path class="cls-1" d="M437.75,228.08h32.71c31.79,0,51.76,23.2,51.76,51.3,0,28.41-20,51.14-51.76,51.14H437.75Zm32.71,94.46c27,0,42.54-19.2,42.54-43.16s-15.36-43.31-42.54-43.31h-24v86.47Z"/><path class="cls-1" d="M544,309.48A41.73,41.73,0,0,0,576,324.38c21,0,27-11.67,27-20.43,0-14.43-13.66-18.43-28.1-22.27-16.13-4.45-33.33-9.06-33.33-28,0-16.74,15.05-27.34,33.64-27.34,15.35,0,26.72,5.38,34.71,14.44l-5.84,6.45c-7.37-8.91-17.82-12.9-29.33-12.9-13.67,0-24,7.83-24,18.89,0,12.13,12.74,15.67,26.72,19.35,16.59,4.76,34.71,10,34.71,30.72,0,13.21-8.75,29-36.4,29-16.89,0-29.64-6.76-37.47-16.28Z"/><path class="cls-1" d="M633.25,228.08h38.39c19.66,0,30.87,13.83,30.87,29.95s-11.36,30-30.87,30H642v42.54h-8.75Zm37.47,8H642V280h28.72c13.52,0,22.58-9.07,22.58-22S684.24,236.07,670.72,236.07Z"/><path class="cls-1" d="M773,305.34H718.48l-10.29,25.18h-9.83l41.93-102.44H751.2l41.92,102.44H783.3Zm-51.75-8h49l-24.57-60.67Z"/><rect class="cls-2" x="179.77" y="201.96" width="21.7" height="21.7"/><rect class="cls-2" x="142.35" y="190.99" width="21.7" height="21.7"/><rect class="cls-2" x="100.92" y="238.24" width="21.7" height="21.7"/><rect class="cls-2" x="159.81" y="246.15" width="21.7" height="21.7"/><rect class="cls-2" x="170.66" y="279.6" width="21.7" height="21.7"/><rect class="cls-2" x="120.65" y="270.79" width="21.7" height="21.7"/><rect class="cls-2" x="142.35" y="301.3" width="21.7" height="21.7"/><rect class="cls-2" x="213.67" y="281.63" width="21.7" height="21.7"/><rect class="cls-2" x="263.29" y="292.48" width="21.7" height="21.7"/><rect class="cls-2" x="263.29" y="270.79" width="21.7" height="21.7"/><rect class="cls-2" x="250.36" y="246.15" width="21.7" height="21.7"/><rect class="cls-2" x="197.18" y="227.53" width="21.7" height="21.7"/><rect class="cls-2" x="259.63" y="212.81" width="21.7" height="21.7"/><rect class="cls-2" x="284.99" y="249.09" width="21.7" height="21.7"/><rect class="cls-2" x="284.99" y="270.79" width="21.7" height="21.7"/><rect class="cls-2" x="284.99" y="314.18" width="21.7" height="21.7"/><rect class="cls-2" x="212.32" y="314.18" width="21.7" height="21.7"/><rect class="cls-2" x="182.76" y="312.15" width="21.7" height="21.7"/><rect class="cls-2" x="153.2" y="331.82" width="21.7" height="21.7"/><rect class="cls-2" x="217.81" y="346.73" width="21.7" height="21.7"/><rect class="cls-2" x="263.29" y="335.88" width="21.7" height="21.7"/><rect class="cls-2" x="284.99" y="335.88" width="21.7" height="21.7"/><rect class="cls-2" x="284.99" y="357.58" width="21.7" height="21.7"/><rect class="cls-2" x="284.99" y="379.28" width="21.7" height="21.7"/><rect class="cls-2" x="250.36" y="368.43" width="21.7" height="21.7"/><rect class="cls-2" x="190.62" y="364.47" width="21.7" height="21.7"/><rect class="cls-2" x="120.65" y="353.62" width="21.7" height="21.7"/><rect class="cls-2" x="158.21" y="410.93" width="21.7" height="21.7"/><rect class="cls-2" x="199.9" y="403.91" width="21.7" height="21.7"/><rect class="cls-2" x="232.81" y="393.06" width="21.7" height="21.7"/><rect class="cls-2" x="306.69" y="379.28" width="21.7" height="21.7"/><rect class="cls-2" x="306.69" y="357.58" width="21.7" height="21.7"/><rect class="cls-2" x="306.69" y="335.88" width="21.7" height="21.7"/><rect class="cls-2" x="306.69" y="292.48" width="21.7" height="21.7"/><rect class="cls-2" x="306.69" y="270.79" width="21.7" height="21.7"/><rect class="cls-2" x="306.69" y="249.09" width="21.7" height="21.7"/><rect class="cls-2" x="306.69" y="227.39" width="21.7" height="21.7"/><rect class="cls-2" x="328.39" y="227.39" width="21.7" height="21.7"/><rect class="cls-2" x="328.39" y="249.09" width="21.7" height="21.7"/><rect class="cls-2" x="328.39" y="292.48" width="21.7" height="21.7"/><rect class="cls-2" x="328.39" y="314.18" width="21.7" height="21.7"/><rect class="cls-2" x="328.39" y="335.88" width="21.7" height="21.7"/><rect class="cls-2" x="328.39" y="379.28" width="21.7" height="21.7"/><rect class="cls-2" x="350.08" y="379.28" width="21.7" height="21.7"/><rect class="cls-2" x="350.08" y="357.58" width="21.7" height="21.7"/><rect class="cls-2" x="350.08" y="314.18" width="21.7" height="21.7"/><rect class="cls-2" x="350.08" y="292.48" width="21.7" height="21.7"/><rect class="cls-2" x="350.08" y="270.79" width="21.7" height="21.7"/><rect class="cls-2" x="350.08" y="249.09" width="21.7" height="21.7"/><rect class="cls-2" x="350.08" y="227.39" width="21.7" height="21.7"/><rect class="cls-2" x="382.63" y="216.68" width="21.7" height="21.7"/><rect class="cls-2" x="371.78" y="249.09" width="21.7" height="21.7"/><rect class="cls-2" x="371.78" y="270.79" width="21.7" height="21.7"/><rect class="cls-2" x="371.78" y="292.48" width="21.7" height="21.7"/><rect class="cls-2" x="371.78" y="314.18" width="21.7" height="21.7"/><rect class="cls-2" x="371.78" y="335.88" width="21.7" height="21.7"/><rect class="cls-2" x="371.78" y="357.58" width="21.7" height="21.7"/><rect class="cls-2" x="382.63" y="390.13" width="21.7" height="21.7"/></g></svg>