<svg xmlns="http://www.w3.org/2000/svg" viewBox="0 0 893.67 610.91"><defs><style>.cls-1,.cls-2{fill:#fff;}.cls-2,.cls-3{fill-rule:evenodd;}</style></defs><g id="logos"><path class="cls-1" d="M640.36,463.58H609v61.57c0,20.07,21.43,37.21,47.93,37.21S706.6,545,706.6,525.15V463.58H675.23v55.53c0,9.15-7.79,16.56-17.34,16.56-9.74,0-17.53-7.41-17.53-16.76Zm-497.61-33.9V557.49H110.21V403.37h58.65c25.52,0,46.37,20.66,46.37,45.79a45.28,45.28,0,0,1-35.27,44l45.2,64.3H186.39L153.85,507V470.2h7.6c12.08,0,21.82-9,21.82-20.06s-9.15-20.46-21.23-20.46ZM442.21,557.49V396H411.43v76.18A42.56,42.56,0,0,0,381,459.68c-25.33,0-46,22.41-46,50.27,0,27.67,20.65,50.27,46,50.27,12.08,0,23.38-4.68,30.4-13.25v10.52ZM389.8,533.91c-12.47,0-22.6-11.1-22.6-24.74s10.13-24.74,22.6-24.74,22.6,11.1,22.6,24.74c-.19,13.64-10.33,24.74-22.6,24.74m181.78-60.2c8.38-7.79,13.64-18.31,13.64-29.81a40.41,40.41,0,0,0-11.11-27.67c-7.4-8-20.26-12.86-37.79-12.86H483.91V557.49h67.8c25.91-.39,46.95-20.07,46.95-44.23-.19-17.53-6.43-30-27.08-39.55M545.47,530.8H516.05V431h20.66c9,0,16.56,6.82,16.56,16a16.67,16.67,0,0,1-16.56,16.56H525.8v27.86h20.06c10.91,0,19.1,9,19.1,19.87-.39,10.91-7.6,18.9-19.49,19.49"/><path class="cls-1" d="M252.44,498.45a18.71,18.71,0,0,1,37.41,0ZM320.24,516c.2-2.14.39-4.29.39-6.43.39-33.32-21.43-51.44-49.49-51.44s-50.85,23-50.85,51.44S243.09,561,271.14,561c21.44,0,38.19-9.74,46.77-24.94L293,524.56c-3.12,6.82-10.53,11.69-19.29,11.69-11.5,0-21.05-8.76-21.05-20.26ZM721,396h30.79V557.49H721Zm52.41,0h30.79V557.49H773.43Z"/><path class="cls-1" d="M327.18,248.73A131.72,131.72,0,1,1,458.9,380.45c-72.84,0-131.72-59.23-131.72-131.72"/><path class="cls-2" d="M353,170.44c2,1,4.09,2.05,6.47,3.41,9.87,6.8,16.34,12.59,31.31,25.18,4.43,4.43,9.53,11.58,13.28,16,8.17,10.21,13.95,17.36,15,25.87,2.39,17,4.77,26.55,11.24,43.91.68,1.7,3.4,4.08,5.1,6.12,4.09,5.11,5.79,13.28,13.28,17.7a57.31,57.31,0,0,1,6.12,3.75c2.05,1.7-1.36,7.82-11.91,6.46,5.45,2.73,4.77,8.85-3.06,9.19-15.32.68-24.85-8.17-26.89-10.55-1-1-4.09,3.06-9.53,5.11-5.45,2.72-12.94,0-18.72,1-5.45,1-12.6,4.42-18.38,4.76-10.21.34-11.57-6.8-11.57-12.93v-2.72c-1,3.74-4.77,10.21-4.77,10.21-1.36,3.06-3.4,6.8-7.15,8.17l-10.89,1.36c-8.51,3.74-17,6.46-25.87,9.53-5.1,1-10.89,0-14.63-3.07-3.07-2.38-4.77-5.44-6.47-8.51-1.7-.68-4.08,0-6.13-.68-1.7-.34-2.72-1.7-3.74-2.72l-7.49-12.59a8.47,8.47,0,0,1,0-5.79c1.36-2.72,4.43-4.08,7.49-4.08,5.45-.34,11.57-2.05,17,0,2.38-2.73,6.13-2.39,9.53-3.07-1.36-2-3.4-3.06-5.11-4.76-9.87,2.38-20.76.68-30.29-1-8.85-2-16.34,3.06-25.19,1.7l-2.72,5.79c-4.08,4.42-4.42,11.91-10.55,15-4.42,1-7.83,4.09-11.57,6.13-6.81,3.74-16,2-23.49.68a15.2,15.2,0,0,0-7.83,1c-2.38,1.7-5.1,4.42-7.82,6.47-4.43,1.7-8.17,5.44-12.94,5.78-2.72,0-5.44-1.7-8.17-1-3.4,3.75-5.1,9.87-10.55,11.57s-12.25.34-17.7-1c-1.7.68-2.72,2.05-4.76,1.7-3.75-1-7.49-2-10.89-4.08a8.61,8.61,0,0,1-2-4.42c0-2.39,2-4.43,3.07-6.47.34-2.38.34-5.79,1.36-8.17,1.7-3.74,5.44-6.13,9.19-7.83a8.83,8.83,0,0,1,4.42-6.47c4.43-2.38,9.19-7.82,15-4.76l6.13,5.11c5.44-2.39,4.08-7.83,6.8-12.26,1.36-3.06,3.07-6.46,6.47-6.46,2.38-.35,5.11.34,7.49,0,3.4-1,7.15-2.39,9.53-5.11l-.34-2c-3.41-6.47-4.43-14.3-4.77-22.13-6.12.68-12.59,1.71-19.06.34-9.53-1.36-18.72-8.85-22.46-18.38-4.09-9.19-2.38-22.12,4.08-30a110.21,110.21,0,0,1,17-16.33c-2-.69-4.42-.35-6.47-1-8.85-1.36-17.69-9.19-19.74-18a21.65,21.65,0,0,1,2.73-16c1-1,2-2,3.74-1.36,4.42,1.7,5.79,4.08,9.87,6.12l2.38,1.36c11.24,3.75,26.21,3.75,30.64,17.7,2.72,10.89-4.09,19.06-11.92,25.19-6.12,4.42-12.25,9.87-15.31,16.34-1.36,4.76-.68,9.53,3.4,12.93,4.08,4.09,11.23,4.09,16.34,2,9.53-4.08,18.38-10.21,26.89-16.67,8.17-6.13,18-8.51,28.59-8.85a29.09,29.09,0,0,0,12.59-6.13c6.47-6.13,13.27-11.23,21.44-13.27,3.75-.69,7.49-1,11.24-1.37,3.06-1.36,5.1-5.1,7.48-6.8,11.24-9.87,26.21-9.53,38.12-17.36,6.81-5.11,14.3-8.51,23.15-8.17a38.75,38.75,0,0,1,11.23,2.38Zm11.24,115.73c-7.49.34-12.26,2-17.36,2.72.34,4.77,3.06,8.85,6.8,14,2-7.83,8.51-10.9,10.56-16.68m191.62,1.7c3.4,5.1,5.45,10.21,8.51,15.66,3.06-5.79,5.79-11.24,8.51-14.64-.34-.34-9.19.68-17-1m7.15,25.19c-.34,1-1,1.36-2.38,1.36,1,4.76-2.39,13.61-10.9,13.95-5.78.34-15.31-5.44-20.76-5.78-5.78-.34-16.34,4.08-22.46-5.11-8.17,9.87-17.7,12.59-25.87,12.25-4.76,0-9.87-2.72-2.72-8.85C462.3,326,462.3,315.44,465,313.4a65,65,0,0,0,9.53-8.17c21.79-22.81,13.62-62.29,37.44-88.5,9.19-10.21,16.68-16,35.4-29.27,6.47-4.42,12.94-10.89,19.06-15.31l.34.68v-.34c3.75-2.73,7.15-5.45,11.23-6.47,8.51-1,16.34,1.7,22.81,6.13a41.81,41.81,0,0,1,8.85,8.5c2,2,5.1,2,7.83,3.07a57.31,57.31,0,0,1,21.1,8.51c4.42,2.72,8.17,7.48,13.61,8.17a50,50,0,0,1,18,6.46c6.81,4.43,12.94,9.87,21.11,11.23,16.33,1.71,30,10.9,42.88,20.09,7.49,4.42,16.34,9.53,25.53,6.46a9.13,9.13,0,0,0,5.44-5.78c.69-6.13-3.06-10.89-6.8-15.32-7.83-9.19-21.45-17-19.74-30.29,2.38-9.87,13.27-15.66,21.78-18.38,4.76-1.7,10.55-1,14.64-5.11,2-1.36,3.06-6.12,6.46-4.42,2.73,1.7,3.07,5.1,3.41,8.17,1.36,9.53-.68,19.06-9.53,24.5-4.09,2.73-8.51,3.75-13.28,4.77,7.15,5.78,14.3,12.93,18.38,21.1a34.73,34.73,0,0,1,4.09,14.3c-.34,10.21-6.47,19.06-15.32,24.16-5.11,2.72-10.89,3.75-17,3.75-2.38,0-4.42-.68-6.47-.68a45.31,45.31,0,0,1,0,16.67c-.34,2.73-2,5.79-2,9.19,1.36,1.7,3.41,1.7,5.11,1.7,4.42,0,9.87-.34,12.25,4.43,2,4.42,3.06,9.53,4.77,14,.68.69,1,2.39,2,2,3.06-2.73,6.12-6.47,10.55-5.45,4.08,2.72,8.17,5.79,12.25,8.85a7.46,7.46,0,0,1,1.7,4.08c3.41,1.37,7.83,3.75,8.85,7.83.68,2.73.34,5.45,1,7.83,1,2.72,3.75,6.13,1.71,9.53l-1.36,1-12.94,4.09a4.7,4.7,0,0,1-3.06-1.7c-6.81-.35-15,1.7-20.42-3.07a29.25,29.25,0,0,1-5.79-7.15c-4.08,2.05-9.87,3.41-14,.68-8.5-6.46-17-12.93-28.59-12.59-5.1,1-11.23,2.38-16.33.34-4.77-3.4-10.21-5.1-14-10.21-5.44-5.79-5.44-12.59-7.49-19.74-7.48,1.7-15.65.68-23.14.34a61.57,61.57,0,0,0-17.7,2,98.64,98.64,0,0,1-22.46,1.7l-3.75,2.73c1.7.34,3.41.34,4.77,1.7l1.36,1.36c6.13.68,13.27-.34,19.06,1a6,6,0,0,1,3.4,3.06,5.4,5.4,0,0,1-.34,5.11c-3.06,4.08-4.76,8.85-8.85,12.25-1,1.36-4.08-.34-4.42,2.05-1.36,6.12-7.15,11.23-12.94,12.59A16.55,16.55,0,0,1,608,343c-7.15-2.38-14.3-4.43-21.45-6.47-2.38-.68-4.42-3.06-6.46-4.42-3.07,0-7.49,1-9.53-1.71-1-.68-2-3.06-2.39-4.08-2.38-3.06-4.08-8.51-5.1-13.27"/><path class="cls-3" d="M349.64,213.33c2,5.1,2,11.91.68,17.36a.64.64,0,0,1-1,0,110.81,110.81,0,0,0-3.74-14.3c-1-2.72-4.43-5.1-3.07-8.17a3.21,3.21,0,0,1,3.07-.34,33,33,0,0,1,4.08,5.45M404.1,261c3.74,4.43,6.47,9.19,5.1,15-.68,1-.34,3.06-2,3.4-.68.34-1.36-.34-1.36-1-.34-3.06-.34-6.47-2-8.85-2-2-4.43-6.13-7.83-6.13-2.38.68-4.08,3.41-5.45,5.11,0,.34-.34.34-.68,0-1.36-3.41,1.36-6.13,2.39-8.85,2-2,1.7-7.83,6.12-6.13,3.07,2,3.75,5.45,5.79,7.49M397,301.48c.34,2,.34,5.11-1.7,6.47a16.6,16.6,0,0,1-7.15.68c-.68-.34-1.36-.68-1-1.36,1-3.06,4.08-6.47,7.49-7.15.68,0,2,0,2.38,1.36M148.49,177.25c8.16,2,17,2,23.14,8.51,3.4,4.08,3.74,11.23,1,15.32-4.76,8.16-14.29,12.25-20.08,19.4-5.79,4.76-7.83,12.25-6.13,19.74,2.05,6.46,8.51,10.89,15,11.23,10.21.34,17.7-4.76,25.87-9.53,8.17-5.79,15.65-13.27,24.84-15.66,6.13-2,12.94-1,19.06-3.4,6.47-1.36,11.58-6.81,16.68-11.57,5.79-4.77,12.59-7.49,20.08-7.15,6.81,1,10.55-5.11,15.32-9.19,7.83-7.15,18-7.83,27.23-11.91,6.47-2,11.57-6.81,17.7-9.87,5.78-2.39,13.61-3.07,19.4-.68,3.74,1.7,7.83,3.4,11.23,6.12l27.57,23.15a4,4,0,0,0,2,2c7.83,9.53,16,18.72,22.47,29.27A46.87,46.87,0,0,1,415,244.64c1.36,15.66,5.45,29.27,10.55,42.89,1.36,2,4.09,3.74,5.45,5.78,4.42,6.13,7.15,14,14.29,18l4.09,2a1,1,0,0,1,0,1.36l-.68.68c-8.51,1.36-15-3.75-19.4-9.87-2.73-5.45-6.47-11.23-12.6-13.62a1.19,1.19,0,0,0-.68.34c.68,2,2.72,3.41,3.41,5.11a41.71,41.71,0,0,1,5.44,11.91c1.36,4.43,6.13,7.49,9.87,9.87l5.45,2.73a1.28,1.28,0,0,1,.34,2l-.68.34A30.14,30.14,0,0,1,416,314.76a7.58,7.58,0,0,0-5.78-3.07c-4.09,3.75-8.17,7.15-13.62,7.49-5.79-1-11.91-1-17,1-4.76,1.71-9.53,3.75-14.63,3.75-2.39,0-5.11-1-6.13-3.41,0-3.06-2-6.46-.34-9.53l3.4-5.1c0-.68-.34-1.36-1-1.36-1.36-.34-3.74,2-4.42-.34.34-5.11,5.44-8.51,8.85-11.92a21.77,21.77,0,0,1,5.44-11.23,1.09,1.09,0,0,0-1-1c-4.42.68-8.85,1.7-13.61,1.7-3.75,2-8.51,3.41-12.94,2-1-.68-.68-1.7-.34-2.38a29.33,29.33,0,0,0,5.11-22.46c-.34-.34-.34-1-1-1s-.68.68-1,1a46.71,46.71,0,0,1-7.49,19.74c-3.06,3.06-7.83,3.06-11.91,4.08a2.93,2.93,0,0,0-2.05,2.39c0,2.72,1.71,4.42,2.73,6.8L336,308.29c.34,4.43-1.71,8.85-2.73,12.93.34.69,1,.35,1.7,0a23.89,23.89,0,0,0,6.47-10.55,8.65,8.65,0,0,0-1-5.1l-9.19-18.38c.68-1,2-1,3.06-1.36,2.05,0,4.09,1,6.13,1.7,2,5.44,4.43,11.23,8.17,16,.68,3.06,1.7,7.14-.34,9.53a76.54,76.54,0,0,1-6.81,11.23c-2.38,2.38-5.78,2-9.19,2.38h-1c-8.17,4.43-16.68,7.15-25.53,9.87-3.74,1.7-8.17.34-11.23-2s-4.42-5.79-6.47-8.85c-2.38-3.06-6.12-.34-8.84-2A127,127,0,0,1,272.38,312c0-1,0-2,1-2.72,3.06-1,6.47-1,9.87-1.36,3.06-.34,6.47.34,8.51,2.38,4.08,4.77,5.78,11.24,11.91,14.3,4.77.34,8.85-1,12.94-3.06,2.38-1.37,5.1-3.41,5.1-6.47-.34-6.13-4.42-10.89-9.53-14.3-5.11-2.72-10.55-6.46-14.29-11.23-2.05-2.72-2.39-5.79-3.41-8.51a1.6,1.6,0,0,0-2-.34c-2,1.7-.34,4.77-.34,6.81.34,1.36,1,3.06.34,4.08-3.06,2.39-7.15,1-10.89,1.36-7.49-.34-14.64-3.4-22.47-2.72-7.48.34-17.7,5.45-23.14-2-2.72-7.15-2-15.66-.68-22.8a1.46,1.46,0,0,0-1.36-1.37,1.26,1.26,0,0,0-1.71.68c-2,7.15-2.38,15-4.08,22.47-2.72,6.47-7.49,13.27-13.95,16.68-5.79,3.06-12.6,4.08-19.75,4.76-12.93.34-24.84,2.72-33,14-.68,1-1.7,2-1.36,3.4.34.34,1.36.68,1.7.34,8.85-9.87,20.08-13.95,33-13.27,12.26,0,24.51-2.05,32.34-12.6a57.34,57.34,0,0,0,5.1-7.49c1.37,0,2.39,1.71,3.41,2.39.34,3.74-2.72,6.12-4.09,9.19-1.7,3.4-3.4,7.48-6.8,9.53-4.09,1-7.49,3.74-11.24,5.78a20.66,20.66,0,0,1-12.93,1.36c-5.44-1-12.93-2.38-18.38,0-2.72,1.71-5.1,4.77-7.83,6.47-3.74,1.7-7.14,4.77-11.57,4.43-3.06-.68-6.81-2.73-9.53,0-3.4,3.06-4.08,8.51-8.51,10.55-5.1,2.72-10.55,0-15.66-.34.69-5.11,1.37-9.87,4.77-13.62a10.74,10.74,0,0,0,5.45-2,22.66,22.66,0,0,0,4.76-6.47c4.43-2.72,9.53-4.76,12.25-9.53,2.05-4.42,2.05-8.51,5.45-12.59l1.7-.68,9.19-.68a47.11,47.11,0,0,0,10.55-6.13,4.9,4.9,0,0,0,1-4.42c-1.7-4.43-3.06-7.49-4.08-12.26s-.34-9.53-1-15c-.34-.34-.68-1.36-1.36-1.36-6.13,1.36-11.92,3.06-18.72,2-9.19-1-18.72-7.15-22.13-16.34-3.06-7.83-2.38-19.06,3.41-25.53,5.44-6.8,12.25-11.91,19.06-17.69,1-.69,1-2.05,1.36-3.07,0-1.36-1.36-2.38-2.38-3.06-4.09-1-8.85.34-12.94-1.36a20.87,20.87,0,0,1-13.61-16.68,13.24,13.24,0,0,1,2-8.85c5.45,4.77,9.53,8.85,14.64,10.21M128.06,329.39v1c-1.7,4.09-2.72,8.85-4.08,13.62a28.74,28.74,0,0,1-8.17-2.38c-.68-.68,0-1.36,0-2,3.06-2.72,2-6.12,2.72-9.87.34-2,2.39-3.74,4.43-4.76,2.38.34,3.74,2.72,5.1,4.42m15-14.29c-1.7,3.4-4.08,7.49-7.83,9.53a6.63,6.63,0,0,1-4.42-.34c-.68-.68-2-1.36-2-2.72.34-1.37-.34-3.07,1-3.75a59.35,59.35,0,0,0,8.16-5.79c.68-.34,2-.68,2.39,0,1.36,1,2.38,1.71,2.72,3.07m170.52-1.36c.34,1.36,2.38,3.06,1,4.42a13.37,13.37,0,0,1-9.53,3.06c-2.72-2-2.38-5.78-4.76-8.5-.68-2.05-3.75-2.05-3.07-4.09l1-.68a62.34,62.34,0,0,0,11.23-.68c3.74-.34,2.72,4.08,4.08,6.47m215.11-55.48a37.44,37.44,0,0,1,5.11,8.85,2.25,2.25,0,0,1-.34,2c-.34.68-1,1.36-2.05.68-2.38-.68-2-4.42-5.1-4.08-2,0-3.4,1.7-5.11,2.72-3.06,2.72-7.14,5.44-7.82,9.53-.69,1.36-.34,3.74-1.71,4.42a1.3,1.3,0,0,1-1.7-1,18.18,18.18,0,0,1,5.11-14.29c3.74-3.07,6.46-7.49,9.53-11.24a3.86,3.86,0,0,1,4.08,2.39M530,303.53c.68,1.36,2.05,3.06,1,4.76-1.36,1-3.74.34-5.44.34-2-1-2.72-3.74-2.72-6.13a1.87,1.87,0,0,1,.68-1.7,8,8,0,0,1,6.46,2.73m51.06-104.16c1,1.37,0,2.73-.68,3.75-4.77,4.42-10.55,9.19-14,14.63a19.07,19.07,0,0,0-3.06,5.79c0,.34-.34.34-.68.34-1-2.72.34-5.79,1-8.51,2.38-6.47,7.83-12.59,13.61-17,.68-.34,3.07-.68,3.75,1m19.4-21.78c3.74,2.38,5.1,7.49,9.53,8.51,7.49,1.7,15,3.4,21.78,6.81a70.13,70.13,0,0,1,13.62,9.53c4.08,2,9.19,2,13.61,3.4,6.47,1.7,11.57,6.47,17.36,10.21,7.49,5.79,18,5.11,26.55,8.85,13.61,4.43,24.5,15,37.1,21.1,6.46,3.41,16.34,4.77,22.8,1,4.43-3.07,7.15-7.15,6.13-12.94-2.38-14-17.7-21.1-24.85-32.67-1.36-2.73-2.38-6.47-1.7-9.53,2.72-6.81,9.87-10.55,16-12.94,4.76-2.38,10.89-1.7,15.31-4.42a21,21,0,0,0,4.09-3.41c1,0,1,1,1.36,1.71,1.36,8.16,0,16.67-7.15,21.44-2.72,2-6.12,2.72-9.19,3.4-2.72,1-8.17-1-7.83,3.75.68,2.38,2.73,3.74,4.43,5.44,9.53,7.83,18.38,18,19.4,30.3.34,9.53-6.13,17.69-14.3,21.78-6.12,2.38-13.61,3.4-20.08,1.7-1.7-.34-4.42-2-5.78.34-.34,2.72,1.36,4.77,1.36,7.15a35.47,35.47,0,0,1-.68,14.63c-.68,3.41-4.09,7.49-1,10.9,3.06,4.76,9.19,3.4,14.29,4.08,2.72.34,3.75,3.4,4.43,5.45,1,2.72,1,5.78,2,7.82,0,5.11,5.78,7.15,8.51,10.56,3.4,3.74,6.46,10.21,12.25,9.87A38.6,38.6,0,0,1,783.6,344l-.68.68c-4.76,0-11.23,1.36-14.63-2-4.09-2.73-5.45-10.21-11.57-8.17a9.69,9.69,0,0,1-9.53,1.36c-3.07-1-5.11-3.74-7.83-5.45-8.17-6.12-19.06-9.19-29.61-6.8-6.13,1.7-10.9-2.73-15.66-5.45-6.47-2.72-8.17-9.53-9.53-15.31l-1-7.15a2.26,2.26,0,0,1,1.36-1.7h1c3.74,8.5,10.89,18,20.08,21.1,8.51,3.4,16.34-1,25.53.68,8.51,1,15.32,6.47,21.78,11.57.68,0,1-.34,1.36-1v-.68c-7.82-9.87-18.72-15-31.31-14-10.55,2.05-20.76-1.36-26.89-10.21a43.06,43.06,0,0,1-6.81-16.33c-1-6.81-2.38-14.3-4.76-20.43-.68-.34-1.36-1-2-.68l-.68,1c1,6.47,3.06,14.3.68,21.11-1.71,5.44-7.15,7.49-12.26,7.83s-9.87-.69-15.31-.69c-12.26-.34-23.15,4.43-35.74,3.41,1-3.06,3.06-6.13,2-9.53-.34-.68-1.36-.68-2-.68-2.38,1.36-2,4.42-3.4,6.46-2.73,4.43-7.83,8.51-12.94,9.53A70.16,70.16,0,0,0,593,312.38c-1,1-1,3.06-.68,4.42,2.38,6.13,9.53,6.81,15,8.51a6.17,6.17,0,0,0,6.46-3.06c2.39-3.75,2.73-9.87,8.17-10.56h11.91a4.57,4.57,0,0,1,2.39,2.05l-.34,1.7c-2.73,3.06-3.75,7.49-7.15,9.53-2,.68-4.43,0-5.79,1.7-.68,4.09-1.7,8.51-5.78,10.55-3.07,2.72-7.49,1.36-10.9.34-6.46-2.38-12.93-3.74-19.4-5.78-2.72-.68-3.74-4.09-6.8-4.77-2.73-.68-5.79,1.36-8.17-1a35.55,35.55,0,0,1-2.72-8.51,22.28,22.28,0,0,1-2-6.81,8.55,8.55,0,0,1,.68-5.1l8.85-16a5.33,5.33,0,0,1,2.39-2.38,24.86,24.86,0,0,1,6.46,2.38l-.34,1-9.19,14c-2,4.42,0,9.53,2,13.27.34.34.69,1,1,.68a23.61,23.61,0,0,1,0-8.51c.68-2.72,2.38-5.1,3.74-7.49L589.94,292a6.61,6.61,0,0,0-.68-6.12c-3.07-3.07-7.49-4.09-10.21-8.17-5.79-7.83-6.47-17-7.15-26.89a2.51,2.51,0,0,0-1.7-2c-.68-.34-1.37.68-1.71,1-1.7,6.47-.68,14.29,1,20.08a60.18,60.18,0,0,0,5.1,12.93c.34.68-.34,1.71-1,2.05a63.07,63.07,0,0,1-14-.68c-6.12-1-10.55-5.79-15.65-9.53-.68-.35-1,.34-1.36.68,1.36,6.8,8.85,10.89,11.23,17,1.36,5.11,6.47,8.85,7.49,14.3a2.8,2.8,0,0,1-1.36,2c-1.71.34-3.41-.68-5.11.34-.34,3.07,1.7,6.13.34,8.85-1.7,2.72-4.08,5.79-7.15,5.79-6.12-2-12.25-4.77-18.38-6.47-4.42-.34-8.85.34-12.93.68-4.09-.68-6.81-4.42-9.87-6.47a2.57,2.57,0,0,0-2.72.34c-6.81,6.81-14.3,14.3-24.51,14-.68,0-1-.68-1-1.36v-.68c4.42-4.09,9.87-8.17,11.91-14,1.36-4.76,5.45-8.17,7.15-12.59.34-.68-.34-1-1-1.36l-1,.68c-5.11,5.1-8.85,10.89-12.6,16.34-3.74,3.74-9.19,6.12-15,4.76-.68-.34-.68-1.36-.34-2,21.1-12.94,23.48-36.08,29.27-57.18,4.08-14,7.15-28.25,18-39.48,16.33-18,36.76-28.6,54.8-44.25,2.72-2.38,5.44-4.77,8.85-4.77,8.84-.68,15.65,2.73,21.78,7.83M794.84,328c1.7,2.38,1,6.13,1.7,8.85.34,2,3.06,3.75,1.7,5.79l-7.49,2.38c-1.36,0-.68-1.7-1.36-2.38a64.06,64.06,0,0,0-3.06-11.57c-.34-2.39,2-4.09,3.74-5.45,1.7-.68,3.06,1.36,4.77,2.38m-17.36-15.31c2.72,2.38,6.46,4.08,8.51,7.14.34,1.37-.68,2.73-1.36,3.75a5.67,5.67,0,0,1-4.09,1.7,5.18,5.18,0,0,1-4.08-2.38c-1.71-2.73-4.09-5.11-4.77-7.83,1-1.7,3.41-4.43,5.79-2.38M613.42,310a30.6,30.6,0,0,1-2.72,9.53c-1,2.05-4.08,1.36-6.13,1-2-.68-5.44-1-5.78-4.08-.34-2.72,1-5.45,2.38-7.49,3.06-.34,6.81.34,9.87-.34,1.36,0,2.38.34,2.38,1.36"/></g></svg>